# xmcd
# 
# Track frame offsets:
#     150
#     12520
#     25410
#     34902
#     67992
#     80825
#     94085
#     109570
#     119960
#     140397
#     171280
#     186730
#     204955
#     226405
#     240730
#     255580
#     276280
#     289930
#     306805
#     316480
# 
# Disc length: 4431
# 
# Revision: 0
# Processed by: cddbd v1.5.2PL0 Copyright (c) Steve Scherf et al.
# Submitted via: fre:ac v1.0.31
# 
DISCID=2e114d14
DTITLE=James Cotton - Otis Spann - Cut You Loose - Cryin'time
DYEAR=0
DGENRE=Blues
TTITLE0=River's Invitation
TTITLE1=Honest I Do
TTITLE2=Got To Get You Off My Mind
TTITLE3=Coast Blues
TTITLE4=Next Time You See Me
TTITLE5=Cut You Loose
TTITLE6=Ain't Nobody's Business
TTITLE7=Set A Date
TTITLE8=Slippin' And Slidin'
TTITLE9=Negative
TTITLE10=Home To Mississippi
TTITLE11=Blues Is A Botheration
TTITLE12=You Said You'd Be On Time
TTITLE13=Cryin' Time
TTITLE14=Blind Man
TTITLE15=Some Day
TTITLE16=Twisted Snake
TTITLE17=Green Flowers
TTITLE18=The New Boogaloo
TTITLE19=Mule Kicking In My Stall
EXTD=
EXTT0=
EXTT1=
EXTT2=
EXTT3=
EXTT4=
EXTT5=
EXTT6=
EXTT7=
EXTT8=
EXTT9=
EXTT10=
EXTT11=
EXTT12=
EXTT13=
EXTT14=
EXTT15=
EXTT16=
EXTT17=
EXTT18=
EXTT19=
PLAYORDER=
